<svg xmlns="http://www.w3.org/2000/svg" viewBox="0 0 128 128" fill="none">
  <defs>
    <linearGradient id="bg" x1="0%" y1="0%" x2="100%" y2="100%">
      <stop offset="0%" stop-color="#00e5ff"/>
      <stop offset="100%" stop-color="#00ff87"/>
    </linearGradient>
  </defs>
  <rect width="128" height="128" rx="28" fill="url(#bg)"/>
  <path
    fill="#050811"
    d="M64 22 34 34v28c0 18.8 12.8 36.4 30 40.8 17.2-4.4 30-22 30-40.8V34L64 22Zm0 12.2 18 7.4v18.4c0 12.2-8.2 23.6-18 27.4-9.8-3.8-18-15.2-18-27.4V41.6l18-7.4Z"
  />
  <path
    fill="#00ff87"
    d="M56 62.5 50 68.5l4 4 10-10 18-18-4-4-14 14-8 8.5Z"
  />
</svg>
